<?xml version="1.0" encoding="utf-8"?>
<!-- Generator: Adobe Illustrator 16.0.2, SVG Export Plug-In . SVG Version: 6.00 Build 0)  -->
<!DOCTYPE svg PUBLIC "-//W3C//DTD SVG 1.1//EN" "http://www.w3.org/Graphics/SVG/1.1/DTD/svg11.dtd">
<svg version="1.1" id="Layer_1" xmlns="http://www.w3.org/2000/svg" xmlns:xlink="http://www.w3.org/1999/xlink" x="0px" y="0px"
	 width="83px" height="110px" viewBox="0 0 83 110" enable-background="new 0 0 83 110" xml:space="preserve">
<path fill="#030104" d="M4.447,42.834v40.89c0,2.608,2.133,4.742,4.742,4.742h63.214c2.606,0,4.74-2.134,4.74-4.742v-40.89H4.447z"
	/>
<rect x="3.776" y="17.401" transform="matrix(0.9511 -0.309 0.309 0.9511 -4.6419 13.1927)" fill="#030104" width="71.115" height="7.704"/>
<rect x="3.577" y="36.414" fill="#030104" width="74.673" height="7.703"/>
<polygon fill="#7C7C7C" points="63.044,17.601 70.26,15.256 61.701,9.938 54.484,12.28 "/>
<polygon fill="#7C7C7C" points="60.914,18.293 52.356,12.972 45.14,15.318 53.696,20.638 "/>
<polygon fill="#7C7C7C" points="51.567,21.329 43.006,16.009 35.791,18.354 44.348,23.673 "/>
<polygon fill="#7C7C7C" points="42.22,24.366 33.661,19.045 26.444,21.39 35.003,26.71 "/>
<polygon fill="#7C7C7C" points="66.371,36.414 73.958,36.414 67.463,44.117 59.874,44.117 "/>
<polygon fill="#7C7C7C" points="64.129,36.414 57.633,44.117 50.045,44.117 56.544,36.414 "/>
<polygon fill="#7C7C7C" points="54.302,36.414 47.806,44.117 40.218,44.117 46.715,36.414 "/>
<polygon fill="#7C7C7C" points="44.475,36.414 37.979,44.117 30.39,44.117 36.889,36.414 "/>
<path fill="#FFFFFF" d="M74.774,54.49v-0.988H6.817v0.988H21.44v9.68H6.817v0.986h67.957v-0.986H40.202v-9.68H74.774z
	 M39.217,64.169h-16.79v-9.68h16.79V64.169z"/>
<rect x="6.817" y="76.489" fill="#FFFFFF" width="67.957" height="0.989"/>
<path fill="#7C7C7C" d="M24.221,44.909H2.788v-16.99c0,0,8.979,0.026,14.423,4.803C22.657,37.5,24.221,44.909,24.221,44.909z"/>
<circle fill="#030104" cx="5.802" cy="31.623" r="1.729"/>
<path fill="#7C7C7C" d="M6.668,31.623c0,0.477-0.389,0.864-0.868,0.864c-0.475,0-0.862-0.387-0.862-0.864
	c0-0.477,0.388-0.863,0.862-0.863C6.279,30.76,6.668,31.146,6.668,31.623z"/>
<circle fill="#030104" cx="5.802" cy="41.698" r="1.729"/>
<path fill="#7C7C7C" d="M6.668,41.698c0,0.477-0.389,0.864-0.868,0.864c-0.475,0-0.862-0.387-0.862-0.864
	c0-0.476,0.388-0.864,0.862-0.864C6.279,40.834,6.668,41.222,6.668,41.698z"/>
<path fill="#030104" d="M21.752,41.698c0,0.954-0.771,1.728-1.725,1.728c-0.957,0-1.732-0.774-1.732-1.728
	c0-0.956,0.775-1.729,1.732-1.729C20.98,39.969,21.752,40.742,21.752,41.698z"/>
<circle fill="#7C7C7C" cx="20.024" cy="41.698" r="0.864"/>
<g>
	<g>
		<path fill="#DB9731" d="M32.608,66.756v7.969h-2.098v-5.413l-1.495,5.391h-1.541l-1.484-5.425v5.447h-1.352v-7.969h2.891
			l1.174,4.274l1.171-4.274H32.608z"/>
		<path fill="#DB9731" d="M40.104,70.605c0,0.648-0.079,1.235-0.236,1.765c-0.156,0.527-0.379,0.979-0.668,1.351
			c-0.291,0.372-0.646,0.66-1.067,0.865c-0.421,0.204-0.89,0.307-1.412,0.307c-0.521,0-0.987-0.095-1.399-0.285
			c-0.414-0.189-0.763-0.459-1.048-0.809c-0.288-0.35-0.507-0.772-0.659-1.268c-0.153-0.494-0.229-1.051-0.229-1.668
			c0-0.647,0.078-1.231,0.24-1.752c0.159-0.521,0.386-0.968,0.681-1.34c0.293-0.373,0.652-0.659,1.075-0.859
			c0.427-0.201,0.907-0.302,1.441-0.302c0.514,0,0.973,0.095,1.378,0.285c0.406,0.19,0.75,0.458,1.032,0.803
			c0.282,0.346,0.501,0.767,0.647,1.261C40.029,69.454,40.104,70.003,40.104,70.605z M35.973,68.33
			c-0.096,0.237-0.17,0.572-0.223,1.004c-0.051,0.431-0.077,0.922-0.077,1.473c0,0.55,0.022,1.008,0.068,1.372
			c0.043,0.365,0.109,0.657,0.199,0.876s0.197,0.375,0.323,0.469c0.128,0.093,0.271,0.14,0.436,0.14c0.17,0,0.322-0.045,0.452-0.135
			c0.131-0.089,0.24-0.237,0.331-0.445c0.088-0.208,0.155-0.49,0.199-0.843c0.045-0.353,0.066-0.794,0.066-1.322
			c0-0.596-0.028-1.12-0.083-1.574c-0.056-0.454-0.137-0.796-0.24-1.027c-0.061-0.149-0.156-0.266-0.284-0.352
			c-0.131-0.085-0.281-0.128-0.452-0.128C36.34,67.838,36.101,68.001,35.973,68.33z"/>
		<path fill="#DB9731" d="M47.109,66.756l-2.411,7.947h-2.388l-2.21-7.947h2.378c0,0.015,0.026,0.122,0.077,0.323
			c0.052,0.201,0.119,0.478,0.207,0.832c0.086,0.354,0.177,0.732,0.271,1.138c0.099,0.405,0.197,0.818,0.302,1.239
			c0.105,0.42,0.197,0.802,0.28,1.144c0.082,0.342,0.175,0.729,0.279,1.161l1.563-5.837H47.109z"/>
		<path fill="#DB9731" d="M48.007,66.756h2.232v7.969h-2.232V66.756z"/>
		<path fill="#DB9731" d="M51.606,66.756h5.245v1.082H53.84v2.266h2.388v1.104H53.84v2.389h3.113v1.105l-5.347,0.022V66.756z"/>
	</g>
</g>
<g>
	<g>
		<path fill="#DB9731" d="M16.528,80.107l-2.121,1.061v-2.165h6.464v2.165l-2.11-1.061v6.886h-2.232V80.107z"/>
		<path fill="#DB9731" d="M21.617,79.025h2.23v7.969h-2.23V79.025z"/>
		<path fill="#DB9731" d="M32.729,79.025v7.969h-2.098V81.58l-1.495,5.392h-1.542l-1.482-5.424v5.446h-1.354v-7.969h2.891
			l1.174,4.274l1.171-4.274H32.729z"/>
		<path fill="#DB9731" d="M33.89,79.025h5.244v1.083h-3.015v2.266h2.391v1.106h-2.391v2.389h3.113v1.104l-5.343,0.022V79.025z"/>
	</g>
	<g>
		<path fill="#DB9731" d="M48.589,86.573l-0.422,0.111c-0.265,0.066-0.502,0.126-0.708,0.177c-0.207,0.052-0.396,0.092-0.57,0.122
			c-0.174,0.029-0.339,0.052-0.491,0.066c-0.156,0.015-0.316,0.022-0.478,0.022c-0.533,0.007-1.011-0.077-1.438-0.254
			c-0.429-0.178-0.791-0.43-1.086-0.759c-0.294-0.328-0.522-0.727-0.683-1.196c-0.157-0.468-0.237-0.99-0.237-1.565
			c0-0.635,0.093-1.218,0.277-1.75c0.187-0.531,0.441-0.987,0.774-1.368c0.333-0.379,0.733-0.675,1.203-0.885
			c0.468-0.21,0.985-0.315,1.554-0.315c0.132,0,0.256,0.006,0.372,0.017c0.114,0.01,0.241,0.027,0.388,0.049
			c0.144,0.022,0.309,0.051,0.493,0.083c0.183,0.033,0.409,0.071,0.676,0.116l0.376,0.066l0.01,1.207
			c-0.297-0.074-0.55-0.133-0.763-0.177c-0.215-0.044-0.439-0.084-0.676-0.122c-0.238-0.036-0.443-0.055-0.62-0.055
			c-0.627,0-1.072,0.248-1.334,0.742c-0.261,0.494-0.392,1.217-0.392,2.169c0,0.45,0.022,0.849,0.076,1.195
			c0.051,0.347,0.139,0.64,0.259,0.88c0.123,0.24,0.282,0.421,0.477,0.542c0.196,0.122,0.44,0.183,0.737,0.183
			c0.185,0,0.407-0.02,0.668-0.061c0.265-0.04,0.514-0.085,0.748-0.133c0.235-0.048,0.521-0.113,0.854-0.194L48.589,86.573z"/>
		<path fill="#DB9731" d="M49.265,79.066h2.216v6.787l2.845-1.173v2.313h-5.061V79.066z"/>
		<path fill="#DB9731" d="M56.939,84.58c0,0.244,0.016,0.442,0.048,0.593c0.026,0.151,0.078,0.271,0.152,0.36
			c0.074,0.088,0.171,0.151,0.295,0.188c0.12,0.037,0.271,0.059,0.448,0.066c0.191,0.007,0.349-0.009,0.472-0.05
			c0.119-0.041,0.226-0.098,0.314-0.172c0.051-0.044,0.096-0.091,0.128-0.139c0.03-0.047,0.059-0.107,0.082-0.177
			c0.021-0.069,0.036-0.158,0.044-0.266c0.007-0.106,0.013-0.245,0.013-0.414v-5.503h1.648v5.249c0,0.922-0.24,1.627-0.72,2.115
			c-0.481,0.486-1.191,0.723-2.125,0.708c-0.511-0.008-0.935-0.055-1.275-0.144c-0.339-0.089-0.646-0.244-0.917-0.466
			c-0.156-0.125-0.284-0.258-0.389-0.398c-0.103-0.14-0.188-0.296-0.255-0.47c-0.065-0.173-0.112-0.367-0.137-0.582
			c-0.026-0.214-0.038-0.457-0.038-0.729v-5.282h2.211V84.58z"/>
		<path fill="#DB9731" d="M61.383,79.066l2.823-0.011c0.273,0,0.512,0.005,0.72,0.017c0.208,0.011,0.389,0.033,0.548,0.066
			c0.158,0.033,0.305,0.08,0.433,0.139c0.128,0.059,0.253,0.132,0.371,0.221c0.235,0.177,0.415,0.398,0.535,0.664
			c0.123,0.266,0.183,0.553,0.183,0.863c0.007,0.443-0.102,0.824-0.326,1.141c-0.225,0.317-0.548,0.554-0.968,0.708
			c0.472,0.148,0.838,0.383,1.102,0.708c0.261,0.326,0.39,0.719,0.381,1.185c0,0.348-0.082,0.668-0.243,0.963
			c-0.161,0.296-0.387,0.54-0.677,0.731c-0.148,0.096-0.291,0.175-0.429,0.238c-0.142,0.063-0.298,0.112-0.472,0.149
			c-0.175,0.037-0.372,0.063-0.592,0.078c-0.223,0.015-0.486,0.021-0.799,0.021l-2.59,0.022V79.066z M63.696,82.388
			c0.391,0,0.665-0.084,0.824-0.254c0.158-0.17,0.238-0.465,0.238-0.886c0-0.413-0.074-0.701-0.22-0.864
			c-0.149-0.162-0.407-0.244-0.775-0.244h-0.168v2.248H63.696z M63.764,85.854c0.397,0,0.678-0.09,0.837-0.271
			c0.158-0.181,0.24-0.497,0.248-0.947c0-0.406-0.084-0.699-0.256-0.88c-0.17-0.181-0.439-0.271-0.807-0.271h-0.19v2.37H63.764z"/>
	</g>
</g>
<g>
	<g>
		<path fill="#030104" d="M8.464,101.57c0.025-0.361,0.374-1.973,0.632-3.198l0.645-2.901h2.682l0.813,3.559
			c0.181,0.838,0.322,1.896,0.387,2.54h0.064c0.052-0.58,0.271-1.921,0.387-2.462l0.438-1.96h-0.709v-1.676h3.688v1.676H16.78
			l-1.921,7.336h-3.056l-0.774-3.069c-0.115-0.438-0.258-1.199-0.322-1.599h-0.051c-0.052,0.387-0.22,1.199-0.31,1.573l-0.787,3.095
			H6.568l-1.702-7.336H4.145v-1.676h4.255v1.676H7.651l0.336,1.882c0.142,0.619,0.36,2.153,0.412,2.54H8.464z"/>
		<path fill="#030104" d="M25.464,95.472v2.85h-2.231v-1.147H21.17v1.779h2.45v1.715h-2.45v2.102h2.063v-1.199h2.231v2.914h-7.775
			v-1.715h0.813v-5.596h-0.813v-1.702H25.464z"/>
		<path fill="#030104" d="M30.187,95.472v1.702h-0.684v5.596h1.664v-1.638h2.166v3.353h-7.221v-1.715h0.709v-5.596h-0.709v-1.702
			H30.187z"/>
		<path fill="#030104" d="M42.31,102.873c-0.877,0.967-2.218,1.818-3.906,1.818c-2.733,0-4.552-1.753-4.552-4.628
			c0-2.966,2.23-4.745,3.92-4.745c1.289,0,1.869,0.722,1.985,0.877l0.297-0.722h2.024v3.662H39.77
			c-0.038-0.838-0.451-1.625-1.366-1.625c-0.929,0-1.534,1.147-1.534,2.553c0,1.276,0.657,2.424,1.882,2.424
			c1.083,0,1.935-1.135,2.051-1.264L42.31,102.873z"/>
		<path fill="#030104" d="M42.7,99.933c0-2.785,1.856-4.707,4.525-4.707c3.159,0,4.629,1.896,4.629,4.796
			c0,2.914-1.624,4.693-4.538,4.693C44.621,104.716,42.7,103.156,42.7,99.933z M48.631,100.023c0-1.56-0.425-2.811-1.418-2.811
			c-0.786-0.013-1.328,1.122-1.328,2.721c0,1.689,0.606,2.759,1.432,2.759C48.129,102.692,48.631,101.622,48.631,100.023z"/>
		<path fill="#030104" d="M61.323,97.741c-0.104,0.58-0.283,1.431-0.374,1.728l-1.354,5.016H56.9l-1.443-5.145
			c-0.064-0.219-0.232-0.954-0.271-1.599h-0.051v5.08h0.734v1.663h-3.494v-1.663h0.696v-5.687h-0.684v-1.663h4.887l1.303,4.822
			l1.237-4.822h4.913v1.663h-0.709v5.673h0.709v1.676h-4.075v-1.676h0.723v-4.306v-0.761H61.323z"/>
		<path fill="#030104" d="M73.153,95.472v2.85h-2.231v-1.147h-2.063v1.779h2.45v1.715h-2.45v2.102h2.063v-1.199h2.231v2.914h-7.775
			v-1.715h0.813v-5.596h-0.813v-1.702H73.153z"/>
		<path fill="#030104" d="M75.311,101.803c0.915,0,1.534,0.631,1.534,1.367c0,0.722-0.593,1.328-1.534,1.328
			c-0.838,0-1.47-0.657-1.47-1.328C73.841,102.524,74.382,101.803,75.311,101.803z M73.892,95.472h3.082v2.45l-0.684,3.25h-1.702
			l-0.696-3.25V95.472z"/>
	</g>
</g>
<g>
	<circle fill="#7C7C7C" cx="6.049" cy="92.614" r="1.311"/>
	<circle fill="#7C7C7C" cx="10.137" cy="92.614" r="1.311"/>
	<path fill="#7C7C7C" d="M15.536,92.614c0,0.724-0.589,1.311-1.31,1.311c-0.726,0-1.312-0.587-1.312-1.311
		c0-0.723,0.586-1.311,1.312-1.311C14.947,91.304,15.536,91.891,15.536,92.614z"/>
	<circle fill="#7C7C7C" cx="75.542" cy="92.614" r="1.311"/>
	<circle fill="#7C7C7C" cx="71.456" cy="92.614" r="1.311"/>
	<circle fill="#7C7C7C" cx="67.368" cy="92.614" r="1.31"/>
	<circle fill="#7C7C7C" cx="63.279" cy="92.614" r="1.311"/>
	<circle fill="#7C7C7C" cx="59.191" cy="92.614" r="1.312"/>
	<circle fill="#7C7C7C" cx="42.839" cy="92.614" r="1.312"/>
	<circle fill="#7C7C7C" cx="38.752" cy="92.614" r="1.312"/>
	<circle fill="#7C7C7C" cx="34.665" cy="92.614" r="1.312"/>
	<circle fill="#7C7C7C" cx="30.577" cy="92.614" r="1.311"/>
	<circle fill="#7C7C7C" cx="26.488" cy="92.614" r="1.31"/>
	<circle fill="#7C7C7C" cx="22.4" cy="92.614" r="1.312"/>
	<circle fill="#7C7C7C" cx="18.314" cy="92.614" r="1.311"/>
	<circle fill="#7C7C7C" cx="55.103" cy="92.614" r="1.311"/>
	<circle fill="#7C7C7C" cx="51.016" cy="92.614" r="1.311"/>
	<circle fill="#7C7C7C" cx="46.927" cy="92.614" r="1.31"/>
</g>
</svg>
